<mxfile host="app.diagrams.net" modified="2024-05-20T13:33:56.198Z" agent="Mozilla/5.0 (Windows NT 10.0; Win64; x64) AppleWebKit/537.36 (KHTML, like Gecko) Chrome/124.0.0.0 Safari/537.36" version="24.4.0" etag="cjRPbIgJpNCQ42InVrCG" type="github">
  <diagram name="Страница — 1" id="FlLMPyFKe2YOKWboijTv">
    <mxGraphModel>
      <root>
        <mxCell id="0" />
        <mxCell id="1" parent="0" />
      </root>
    </mxGraphModel>
  </diagram>
</mxfile>
